<mxfile host="app.diagrams.net" agent="Mozilla/5.0 (Windows NT 10.0; Win64; x64; rv:135.0) Gecko/20100101 Firefox/135.0" version="26.0.16">
  <diagram name="Сторінка-1" id="e0aHCHC7kIKrVcIkD5wt">
    <mxGraphModel dx="1877" dy="530" grid="1" gridSize="10" guides="1" tooltips="1" connect="1" arrows="1" fold="1" page="1" pageScale="1" pageWidth="827" pageHeight="1169" math="0" shadow="0">
      <root>
        <mxCell id="0" />
        <mxCell id="1" parent="0" />
        <mxCell id="J5GDnt6yjxGUtKddlbs5-5" value="Guest" style="shape=umlActor;verticalLabelPosition=bottom;verticalAlign=top;html=1;outlineConnect=0;" parent="1" vertex="1">
          <mxGeometry x="110" y="860" width="30" height="60" as="geometry" />
        </mxCell>
        <mxCell id="AFWIwDUNXXDoYLAIWD7Z-5" style="edgeStyle=orthogonalEdgeStyle;rounded=0;orthogonalLoop=1;jettySize=auto;html=1;entryX=0;entryY=0.5;entryDx=0;entryDy=0;exitX=0.5;exitY=0.5;exitDx=0;exitDy=0;exitPerimeter=0;" edge="1" parent="1" source="J5GDnt6yjxGUtKddlbs5-8" target="zwFJQ0Gg1JE_ODY-DxE--3">
          <mxGeometry relative="1" as="geometry">
            <mxPoint x="170" y="331" as="sourcePoint" />
          </mxGeometry>
        </mxCell>
        <mxCell id="AFWIwDUNXXDoYLAIWD7Z-6" style="edgeStyle=orthogonalEdgeStyle;rounded=0;orthogonalLoop=1;jettySize=auto;html=1;exitX=0.5;exitY=0.5;exitDx=0;exitDy=0;exitPerimeter=0;entryX=0;entryY=0.5;entryDx=0;entryDy=0;" edge="1" parent="1" source="J5GDnt6yjxGUtKddlbs5-8" target="J5GDnt6yjxGUtKddlbs5-60">
          <mxGeometry relative="1" as="geometry" />
        </mxCell>
        <mxCell id="AFWIwDUNXXDoYLAIWD7Z-7" style="edgeStyle=orthogonalEdgeStyle;rounded=0;orthogonalLoop=1;jettySize=auto;html=1;exitX=0.5;exitY=0.5;exitDx=0;exitDy=0;exitPerimeter=0;entryX=0;entryY=0.5;entryDx=0;entryDy=0;" edge="1" parent="1" source="J5GDnt6yjxGUtKddlbs5-8" target="J5GDnt6yjxGUtKddlbs5-21">
          <mxGeometry relative="1" as="geometry" />
        </mxCell>
        <mxCell id="AFWIwDUNXXDoYLAIWD7Z-8" style="edgeStyle=orthogonalEdgeStyle;rounded=0;orthogonalLoop=1;jettySize=auto;html=1;exitX=0.5;exitY=0.5;exitDx=0;exitDy=0;exitPerimeter=0;entryX=0;entryY=0.5;entryDx=0;entryDy=0;" edge="1" parent="1" source="J5GDnt6yjxGUtKddlbs5-8" target="J5GDnt6yjxGUtKddlbs5-20">
          <mxGeometry relative="1" as="geometry" />
        </mxCell>
        <mxCell id="AFWIwDUNXXDoYLAIWD7Z-9" style="edgeStyle=orthogonalEdgeStyle;rounded=0;orthogonalLoop=1;jettySize=auto;html=1;exitX=0.5;exitY=0.5;exitDx=0;exitDy=0;exitPerimeter=0;entryX=0;entryY=0.5;entryDx=0;entryDy=0;" edge="1" parent="1" source="J5GDnt6yjxGUtKddlbs5-8" target="8sI2hjCf3STtVb6qoaaf-5">
          <mxGeometry relative="1" as="geometry" />
        </mxCell>
        <mxCell id="AFWIwDUNXXDoYLAIWD7Z-10" style="edgeStyle=orthogonalEdgeStyle;rounded=0;orthogonalLoop=1;jettySize=auto;html=1;exitX=0.5;exitY=0.5;exitDx=0;exitDy=0;exitPerimeter=0;entryX=1;entryY=0.5;entryDx=0;entryDy=0;" edge="1" parent="1" source="J5GDnt6yjxGUtKddlbs5-8" target="AFWIwDUNXXDoYLAIWD7Z-1">
          <mxGeometry relative="1" as="geometry" />
        </mxCell>
        <mxCell id="AFWIwDUNXXDoYLAIWD7Z-11" style="edgeStyle=orthogonalEdgeStyle;rounded=0;orthogonalLoop=1;jettySize=auto;html=1;exitX=0.5;exitY=0.5;exitDx=0;exitDy=0;exitPerimeter=0;entryX=1;entryY=0.5;entryDx=0;entryDy=0;" edge="1" parent="1" source="J5GDnt6yjxGUtKddlbs5-8" target="J5GDnt6yjxGUtKddlbs5-66">
          <mxGeometry relative="1" as="geometry" />
        </mxCell>
        <mxCell id="J5GDnt6yjxGUtKddlbs5-8" value="Manager" style="shape=umlActor;verticalLabelPosition=bottom;verticalAlign=top;html=1;outlineConnect=0;" parent="1" vertex="1">
          <mxGeometry x="110" y="310" width="30" height="60" as="geometry" />
        </mxCell>
        <mxCell id="J5GDnt6yjxGUtKddlbs5-11" value="Send Contacts" style="ellipse;whiteSpace=wrap;html=1;fillColor=#f8cecc;strokeColor=#b85450;" parent="1" vertex="1">
          <mxGeometry x="184" y="860" width="116" height="30" as="geometry" />
        </mxCell>
        <mxCell id="J5GDnt6yjxGUtKddlbs5-14" value="View Listing" style="ellipse;whiteSpace=wrap;html=1;fillColor=#d5e8d4;strokeColor=#82b366;" parent="1" vertex="1">
          <mxGeometry x="-52.75" y="870" width="110" height="30" as="geometry" />
        </mxCell>
        <mxCell id="J5GDnt6yjxGUtKddlbs5-15" value="&lt;div&gt;Manage Own Listing&lt;/div&gt;" style="ellipse;whiteSpace=wrap;html=1;fillColor=#d5e8d4;strokeColor=#82b366;" parent="1" vertex="1">
          <mxGeometry x="72" y="490" width="106" height="70" as="geometry" />
        </mxCell>
        <mxCell id="J5GDnt6yjxGUtKddlbs5-16" value="&lt;p&gt;Save Listing&lt;/p&gt;" style="ellipse;whiteSpace=wrap;html=1;fillColor=#f8cecc;strokeColor=#b85450;" parent="1" vertex="1">
          <mxGeometry x="178" y="680" width="110" height="30" as="geometry" />
        </mxCell>
        <mxCell id="J5GDnt6yjxGUtKddlbs5-17" value="View Listing" style="ellipse;whiteSpace=wrap;html=1;fillColor=#d5e8d4;strokeColor=#82b366;" parent="1" vertex="1">
          <mxGeometry x="-82.75" y="600" width="110" height="30" as="geometry" />
        </mxCell>
        <mxCell id="J5GDnt6yjxGUtKddlbs5-20" value="Close Request" style="ellipse;whiteSpace=wrap;html=1;fillColor=#fff2cc;strokeColor=#d6b656;" parent="1" vertex="1">
          <mxGeometry x="232.5" y="250" width="115" height="30" as="geometry" />
        </mxCell>
        <mxCell id="J5GDnt6yjxGUtKddlbs5-21" value="Remove User Listing" style="ellipse;whiteSpace=wrap;html=1;fillColor=#f8cecc;strokeColor=#b85450;" parent="1" vertex="1">
          <mxGeometry x="230" y="360" width="130" height="30" as="geometry" />
        </mxCell>
        <mxCell id="J5GDnt6yjxGUtKddlbs5-38" value="" style="endArrow=classic;html=1;rounded=0;entryX=0.017;entryY=0.609;entryDx=0;entryDy=0;entryPerimeter=0;exitX=1;exitY=0.3333333333333333;exitDx=0;exitDy=0;exitPerimeter=0;" parent="1" source="J5GDnt6yjxGUtKddlbs5-5" target="J5GDnt6yjxGUtKddlbs5-11" edge="1">
          <mxGeometry width="50" height="50" relative="1" as="geometry">
            <mxPoint x="160" y="680" as="sourcePoint" />
            <mxPoint x="320" y="630" as="targetPoint" />
          </mxGeometry>
        </mxCell>
        <mxCell id="J5GDnt6yjxGUtKddlbs5-39" value="" style="endArrow=classic;html=1;rounded=0;exitX=0;exitY=0.3333333333333333;exitDx=0;exitDy=0;exitPerimeter=0;entryX=1;entryY=0.5;entryDx=0;entryDy=0;" parent="1" source="J5GDnt6yjxGUtKddlbs5-5" target="J5GDnt6yjxGUtKddlbs5-14" edge="1">
          <mxGeometry width="50" height="50" relative="1" as="geometry">
            <mxPoint x="150" y="690" as="sourcePoint" />
            <mxPoint x="90" y="880" as="targetPoint" />
          </mxGeometry>
        </mxCell>
        <mxCell id="J5GDnt6yjxGUtKddlbs5-40" value="" style="endArrow=classic;html=1;rounded=0;entryX=0.5;entryY=1;entryDx=0;entryDy=0;exitX=0.5;exitY=0;exitDx=0;exitDy=0;exitPerimeter=0;" parent="1" source="J5GDnt6yjxGUtKddlbs5-6" target="J5GDnt6yjxGUtKddlbs5-15" edge="1">
          <mxGeometry width="50" height="50" relative="1" as="geometry">
            <mxPoint x="160" y="450" as="sourcePoint" />
            <mxPoint x="260" y="330" as="targetPoint" />
          </mxGeometry>
        </mxCell>
        <mxCell id="J5GDnt6yjxGUtKddlbs5-41" value="" style="endArrow=classic;html=1;rounded=0;entryX=0;entryY=0.5;entryDx=0;entryDy=0;exitX=1;exitY=0.3333333333333333;exitDx=0;exitDy=0;exitPerimeter=0;" parent="1" source="J5GDnt6yjxGUtKddlbs5-6" target="J5GDnt6yjxGUtKddlbs5-16" edge="1">
          <mxGeometry width="50" height="50" relative="1" as="geometry">
            <mxPoint x="320" y="630" as="sourcePoint" />
            <mxPoint x="260" y="430" as="targetPoint" />
          </mxGeometry>
        </mxCell>
        <mxCell id="J5GDnt6yjxGUtKddlbs5-42" value="" style="endArrow=classic;html=1;rounded=0;entryX=1;entryY=0.5;entryDx=0;entryDy=0;exitX=0;exitY=0.3333333333333333;exitDx=0;exitDy=0;exitPerimeter=0;" parent="1" source="J5GDnt6yjxGUtKddlbs5-6" target="J5GDnt6yjxGUtKddlbs5-17" edge="1">
          <mxGeometry width="50" height="50" relative="1" as="geometry">
            <mxPoint x="160" y="440" as="sourcePoint" />
            <mxPoint x="200" y="340" as="targetPoint" />
          </mxGeometry>
        </mxCell>
        <mxCell id="J5GDnt6yjxGUtKddlbs5-49" value="" style="ellipse;whiteSpace=wrap;html=1;fillColor=#d5e8d4;strokeColor=#82b366;" parent="1" vertex="1">
          <mxGeometry x="350" y="790" width="30" height="30" as="geometry" />
        </mxCell>
        <mxCell id="kSonNq_8K3EYrYGjyd0F-4" style="edgeStyle=orthogonalEdgeStyle;rounded=0;orthogonalLoop=1;jettySize=auto;html=1;entryX=1;entryY=0.5;entryDx=0;entryDy=0;" parent="1" source="J5GDnt6yjxGUtKddlbs5-50" target="kSonNq_8K3EYrYGjyd0F-2" edge="1">
          <mxGeometry relative="1" as="geometry" />
        </mxCell>
        <mxCell id="J5GDnt6yjxGUtKddlbs5-50" value="&lt;p&gt;Additional functionality&lt;/p&gt;" style="text;html=1;align=center;verticalAlign=middle;whiteSpace=wrap;rounded=0;" parent="1" vertex="1">
          <mxGeometry x="410" y="825" width="130" height="30" as="geometry" />
        </mxCell>
        <mxCell id="kSonNq_8K3EYrYGjyd0F-5" style="edgeStyle=orthogonalEdgeStyle;rounded=0;orthogonalLoop=1;jettySize=auto;html=1;entryX=1;entryY=0.5;entryDx=0;entryDy=0;" parent="1" source="J5GDnt6yjxGUtKddlbs5-52" target="kSonNq_8K3EYrYGjyd0F-3" edge="1">
          <mxGeometry relative="1" as="geometry" />
        </mxCell>
        <mxCell id="J5GDnt6yjxGUtKddlbs5-52" value="&lt;p&gt;If there is enough time&lt;/p&gt;" style="text;html=1;align=center;verticalAlign=middle;whiteSpace=wrap;rounded=0;" parent="1" vertex="1">
          <mxGeometry x="410" y="860" width="130" height="30" as="geometry" />
        </mxCell>
        <mxCell id="J5GDnt6yjxGUtKddlbs5-60" value="Block User Account" style="ellipse;whiteSpace=wrap;html=1;fillColor=#f8cecc;strokeColor=#b85450;" parent="1" vertex="1">
          <mxGeometry x="230" y="290" width="120" height="30" as="geometry" />
        </mxCell>
        <mxCell id="J5GDnt6yjxGUtKddlbs5-65" value="Publish" style="ellipse;whiteSpace=wrap;html=1;fillColor=#d5e8d4;strokeColor=#82b366;" parent="1" vertex="1">
          <mxGeometry x="-50" y="190" width="77.25" height="20" as="geometry" />
        </mxCell>
        <mxCell id="J5GDnt6yjxGUtKddlbs5-66" value="View Listing" style="ellipse;whiteSpace=wrap;html=1;fillColor=#d5e8d4;strokeColor=#82b366;" parent="1" vertex="1">
          <mxGeometry x="-47.75000000000001" y="310" width="89.75" height="30" as="geometry" />
        </mxCell>
        <mxCell id="J5GDnt6yjxGUtKddlbs5-68" value="Edit" style="ellipse;whiteSpace=wrap;html=1;fillColor=#d5e8d4;strokeColor=#82b366;" parent="1" vertex="1">
          <mxGeometry x="-47.75" y="230" width="77.75" height="20" as="geometry" />
        </mxCell>
        <mxCell id="J5GDnt6yjxGUtKddlbs5-69" value="Delete" style="ellipse;whiteSpace=wrap;html=1;fillColor=#d5e8d4;strokeColor=#82b366;" parent="1" vertex="1">
          <mxGeometry x="-50" y="270" width="80" height="20" as="geometry" />
        </mxCell>
        <mxCell id="J5GDnt6yjxGUtKddlbs5-71" value="&lt;div&gt;Manage Shelter Listing&lt;/div&gt;" style="ellipse;whiteSpace=wrap;html=1;fillColor=#d5e8d4;strokeColor=#82b366;" parent="1" vertex="1">
          <mxGeometry x="77.5" y="190" width="95" height="60" as="geometry" />
        </mxCell>
        <mxCell id="J5GDnt6yjxGUtKddlbs5-72" value="" style="endArrow=classic;html=1;rounded=0;exitX=0.5;exitY=0;exitDx=0;exitDy=0;exitPerimeter=0;entryX=0.5;entryY=1;entryDx=0;entryDy=0;" parent="1" source="J5GDnt6yjxGUtKddlbs5-8" target="J5GDnt6yjxGUtKddlbs5-71" edge="1">
          <mxGeometry width="50" height="50" relative="1" as="geometry">
            <mxPoint x="170" y="50" as="sourcePoint" />
            <mxPoint x="137" y="240" as="targetPoint" />
          </mxGeometry>
        </mxCell>
        <mxCell id="J5GDnt6yjxGUtKddlbs5-78" value="Publish" style="ellipse;whiteSpace=wrap;html=1;fillColor=#d5e8d4;strokeColor=#82b366;" parent="1" vertex="1">
          <mxGeometry x="-57.75" y="450" width="85" height="20" as="geometry" />
        </mxCell>
        <mxCell id="J5GDnt6yjxGUtKddlbs5-80" value="Edit" style="ellipse;whiteSpace=wrap;html=1;fillColor=#d5e8d4;strokeColor=#82b366;" parent="1" vertex="1">
          <mxGeometry x="-52.75" y="480" width="80" height="20" as="geometry" />
        </mxCell>
        <mxCell id="J5GDnt6yjxGUtKddlbs5-81" value="Delete" style="ellipse;whiteSpace=wrap;html=1;fillColor=#d5e8d4;strokeColor=#82b366;" parent="1" vertex="1">
          <mxGeometry x="-57.25" y="520" width="84.5" height="20" as="geometry" />
        </mxCell>
        <mxCell id="J5GDnt6yjxGUtKddlbs5-91" value="" style="endArrow=classic;html=1;rounded=0;entryX=0.5;entryY=1;entryDx=0;entryDy=0;exitX=0.5;exitY=0;exitDx=0;exitDy=0;exitPerimeter=0;" parent="1" source="J5GDnt6yjxGUtKddlbs5-5" target="J5GDnt6yjxGUtKddlbs5-13" edge="1">
          <mxGeometry width="50" height="50" relative="1" as="geometry">
            <mxPoint x="135" y="710" as="sourcePoint" />
            <mxPoint x="134.5" y="570" as="targetPoint" />
          </mxGeometry>
        </mxCell>
        <mxCell id="J5GDnt6yjxGUtKddlbs5-13" value="Register" style="ellipse;whiteSpace=wrap;html=1;fillColor=#d5e8d4;strokeColor=#82b366;" parent="1" vertex="1">
          <mxGeometry x="82.5" y="792.5" width="85" height="30" as="geometry" />
        </mxCell>
        <mxCell id="J5GDnt6yjxGUtKddlbs5-106" value="" style="endArrow=blockThin;html=1;strokeColor=#475e75;bendable=1;rounded=0;endFill=1;endSize=4;edgeStyle=entityRelationEdgeStyle;startArrow=none;startFill=0;startSize=4;jumpStyle=none;jumpSize=0;targetPerimeterSpacing=15;dashed=1;strokeWidth=1.5;exitX=1;exitY=0.5;exitDx=0;exitDy=0;entryX=0;entryY=0;entryDx=0;entryDy=0;" parent="1" source="J5GDnt6yjxGUtKddlbs5-65" target="J5GDnt6yjxGUtKddlbs5-71" edge="1">
          <mxGeometry width="50" height="50" relative="1" as="geometry">
            <mxPoint x="473.4999999999925" y="-70" as="sourcePoint" />
            <mxPoint x="414.0000000000002" y="15" as="targetPoint" />
          </mxGeometry>
        </mxCell>
        <mxCell id="J5GDnt6yjxGUtKddlbs5-107" value="" style="endArrow=blockThin;html=1;strokeColor=#475e75;bendable=1;rounded=0;endFill=1;endSize=4;edgeStyle=entityRelationEdgeStyle;startArrow=none;startFill=0;startSize=4;jumpStyle=none;jumpSize=0;targetPerimeterSpacing=15;dashed=1;strokeWidth=1.5;exitX=1;exitY=0.5;exitDx=0;exitDy=0;" parent="1" source="J5GDnt6yjxGUtKddlbs5-68" edge="1">
          <mxGeometry width="50" height="50" relative="1" as="geometry">
            <mxPoint x="516" y="67.5" as="sourcePoint" />
            <mxPoint x="90" y="199" as="targetPoint" />
          </mxGeometry>
        </mxCell>
        <mxCell id="J5GDnt6yjxGUtKddlbs5-109" value="" style="endArrow=blockThin;html=1;strokeColor=#475e75;bendable=1;rounded=0;endFill=1;endSize=4;edgeStyle=entityRelationEdgeStyle;startArrow=none;startFill=0;startSize=4;jumpStyle=none;jumpSize=0;targetPerimeterSpacing=15;dashed=1;strokeWidth=1.5;exitX=1;exitY=0.5;exitDx=0;exitDy=0;entryX=0;entryY=0;entryDx=0;entryDy=0;" parent="1" source="J5GDnt6yjxGUtKddlbs5-69" target="J5GDnt6yjxGUtKddlbs5-71" edge="1">
          <mxGeometry width="50" height="50" relative="1" as="geometry">
            <mxPoint x="696" y="-20" as="sourcePoint" />
            <mxPoint x="816" y="-20" as="targetPoint" />
          </mxGeometry>
        </mxCell>
        <mxCell id="kSonNq_8K3EYrYGjyd0F-6" style="edgeStyle=orthogonalEdgeStyle;rounded=0;orthogonalLoop=1;jettySize=auto;html=1;entryX=1;entryY=0.5;entryDx=0;entryDy=0;" parent="1" source="dXTff_zAqi7VN8Ybhm66-1" target="J5GDnt6yjxGUtKddlbs5-49" edge="1">
          <mxGeometry relative="1" as="geometry" />
        </mxCell>
        <mxCell id="dXTff_zAqi7VN8Ybhm66-1" value="&lt;p&gt;Main functionality&lt;/p&gt;" style="text;html=1;align=center;verticalAlign=middle;whiteSpace=wrap;rounded=0;" parent="1" vertex="1">
          <mxGeometry x="430" y="792.5" width="100" height="25" as="geometry" />
        </mxCell>
        <mxCell id="nGhAJhlPNn2TMspBPgrk-1" value="" style="endArrow=classic;html=1;rounded=0;exitX=0.5;exitY=0;exitDx=0;exitDy=0;" parent="1" source="J5GDnt6yjxGUtKddlbs5-13" edge="1">
          <mxGeometry width="50" height="50" relative="1" as="geometry">
            <mxPoint x="125" y="860" as="sourcePoint" />
            <mxPoint x="125" y="740" as="targetPoint" />
            <Array as="points" />
          </mxGeometry>
        </mxCell>
        <mxCell id="nGhAJhlPNn2TMspBPgrk-7" style="edgeStyle=orthogonalEdgeStyle;rounded=0;orthogonalLoop=1;jettySize=auto;html=1;exitX=0;exitY=0.3333333333333333;exitDx=0;exitDy=0;exitPerimeter=0;entryX=1;entryY=0.5;entryDx=0;entryDy=0;" parent="1" source="J5GDnt6yjxGUtKddlbs5-6" target="nGhAJhlPNn2TMspBPgrk-6" edge="1">
          <mxGeometry relative="1" as="geometry">
            <Array as="points">
              <mxPoint x="30" y="655" />
            </Array>
          </mxGeometry>
        </mxCell>
        <mxCell id="8sI2hjCf3STtVb6qoaaf-2" style="edgeStyle=orthogonalEdgeStyle;rounded=0;orthogonalLoop=1;jettySize=auto;html=1;exitX=0;exitY=0.3333333333333333;exitDx=0;exitDy=0;exitPerimeter=0;entryX=1;entryY=0.5;entryDx=0;entryDy=0;" parent="1" source="J5GDnt6yjxGUtKddlbs5-6" target="8sI2hjCf3STtVb6qoaaf-1" edge="1">
          <mxGeometry relative="1" as="geometry" />
        </mxCell>
        <mxCell id="8sI2hjCf3STtVb6qoaaf-4" style="edgeStyle=orthogonalEdgeStyle;rounded=0;orthogonalLoop=1;jettySize=auto;html=1;exitX=1;exitY=0.3333333333333333;exitDx=0;exitDy=0;exitPerimeter=0;entryX=0;entryY=0.5;entryDx=0;entryDy=0;" parent="1" source="J5GDnt6yjxGUtKddlbs5-6" target="8sI2hjCf3STtVb6qoaaf-3" edge="1">
          <mxGeometry relative="1" as="geometry" />
        </mxCell>
        <mxCell id="zwFJQ0Gg1JE_ODY-DxE--2" style="edgeStyle=orthogonalEdgeStyle;rounded=0;orthogonalLoop=1;jettySize=auto;html=1;exitX=1;exitY=0.3333333333333333;exitDx=0;exitDy=0;exitPerimeter=0;entryX=0;entryY=0.5;entryDx=0;entryDy=0;" parent="1" source="J5GDnt6yjxGUtKddlbs5-6" target="zwFJQ0Gg1JE_ODY-DxE--1" edge="1">
          <mxGeometry relative="1" as="geometry" />
        </mxCell>
        <mxCell id="J5GDnt6yjxGUtKddlbs5-6" value="User" style="shape=umlActor;verticalLabelPosition=bottom;verticalAlign=top;html=1;outlineConnect=0;" parent="1" vertex="1">
          <mxGeometry x="110" y="635" width="30" height="60" as="geometry" />
        </mxCell>
        <mxCell id="nGhAJhlPNn2TMspBPgrk-2" value="" style="endArrow=blockThin;html=1;strokeColor=#475e75;bendable=1;rounded=0;endFill=1;endSize=4;edgeStyle=entityRelationEdgeStyle;startArrow=none;startFill=0;startSize=4;jumpStyle=none;jumpSize=0;targetPerimeterSpacing=15;dashed=1;strokeWidth=1.5;exitX=1;exitY=0.5;exitDx=0;exitDy=0;entryX=0;entryY=0;entryDx=0;entryDy=0;" parent="1" source="J5GDnt6yjxGUtKddlbs5-80" target="J5GDnt6yjxGUtKddlbs5-15" edge="1">
          <mxGeometry width="50" height="50" relative="1" as="geometry">
            <mxPoint x="180" y="570" as="sourcePoint" />
            <mxPoint x="300" y="570" as="targetPoint" />
          </mxGeometry>
        </mxCell>
        <mxCell id="nGhAJhlPNn2TMspBPgrk-3" value="" style="endArrow=blockThin;html=1;strokeColor=#475e75;bendable=1;rounded=0;endFill=1;endSize=4;edgeStyle=entityRelationEdgeStyle;startArrow=none;startFill=0;startSize=4;jumpStyle=none;jumpSize=0;targetPerimeterSpacing=15;dashed=1;strokeWidth=1.5;exitX=1;exitY=0.5;exitDx=0;exitDy=0;entryX=0;entryY=0;entryDx=0;entryDy=0;" parent="1" source="J5GDnt6yjxGUtKddlbs5-81" target="J5GDnt6yjxGUtKddlbs5-15" edge="1">
          <mxGeometry width="50" height="50" relative="1" as="geometry">
            <mxPoint x="180" y="570" as="sourcePoint" />
            <mxPoint x="300" y="570" as="targetPoint" />
          </mxGeometry>
        </mxCell>
        <mxCell id="nGhAJhlPNn2TMspBPgrk-5" value="" style="endArrow=blockThin;html=1;strokeColor=#475e75;bendable=1;rounded=0;endFill=1;endSize=4;edgeStyle=entityRelationEdgeStyle;startArrow=none;startFill=0;startSize=4;jumpStyle=none;jumpSize=0;targetPerimeterSpacing=15;dashed=1;strokeWidth=1.5;exitX=1;exitY=0.5;exitDx=0;exitDy=0;entryX=0;entryY=0;entryDx=0;entryDy=0;" parent="1" source="J5GDnt6yjxGUtKddlbs5-78" target="J5GDnt6yjxGUtKddlbs5-15" edge="1">
          <mxGeometry width="50" height="50" relative="1" as="geometry">
            <mxPoint x="180" y="570" as="sourcePoint" />
            <mxPoint x="300" y="570" as="targetPoint" />
          </mxGeometry>
        </mxCell>
        <mxCell id="nGhAJhlPNn2TMspBPgrk-6" value="Exit Account" style="ellipse;whiteSpace=wrap;html=1;fillColor=#d5e8d4;strokeColor=#82b366;" parent="1" vertex="1">
          <mxGeometry x="-82.75" y="640" width="110" height="30" as="geometry" />
        </mxCell>
        <mxCell id="nGhAJhlPNn2TMspBPgrk-11" value="Login" style="ellipse;whiteSpace=wrap;html=1;fillColor=#d5e8d4;strokeColor=#82b366;" parent="1" vertex="1">
          <mxGeometry x="-90" y="792.5" width="110" height="30" as="geometry" />
        </mxCell>
        <mxCell id="kSonNq_8K3EYrYGjyd0F-2" value="" style="ellipse;whiteSpace=wrap;html=1;fillColor=#fff2cc;strokeColor=#d6b656;" parent="1" vertex="1">
          <mxGeometry x="350" y="825" width="30" height="30" as="geometry" />
        </mxCell>
        <mxCell id="kSonNq_8K3EYrYGjyd0F-3" value="" style="ellipse;whiteSpace=wrap;html=1;fillColor=#f8cecc;strokeColor=#b85450;" parent="1" vertex="1">
          <mxGeometry x="350" y="860" width="30" height="30" as="geometry" />
        </mxCell>
        <mxCell id="8sI2hjCf3STtVb6qoaaf-1" value="Send Contacts" style="ellipse;whiteSpace=wrap;html=1;fillColor=#d5e8d4;strokeColor=#82b366;" parent="1" vertex="1">
          <mxGeometry x="-86.25" y="680" width="116" height="30" as="geometry" />
        </mxCell>
        <mxCell id="8sI2hjCf3STtVb6qoaaf-3" value="Receive Contacts" style="ellipse;whiteSpace=wrap;html=1;fillColor=#d5e8d4;strokeColor=#82b366;" parent="1" vertex="1">
          <mxGeometry x="172.5" y="640" width="110" height="30" as="geometry" />
        </mxCell>
        <mxCell id="8sI2hjCf3STtVb6qoaaf-5" value="&lt;div&gt;View Request&lt;/div&gt;" style="ellipse;whiteSpace=wrap;html=1;fillColor=#fff2cc;strokeColor=#d6b656;" parent="1" vertex="1">
          <mxGeometry x="230" y="205" width="115" height="30" as="geometry" />
        </mxCell>
        <mxCell id="8sI2hjCf3STtVb6qoaaf-7" value="" style="endArrow=blockThin;html=1;strokeColor=#475e75;bendable=1;rounded=0;endFill=1;endSize=4;edgeStyle=entityRelationEdgeStyle;startArrow=none;startFill=0;startSize=4;jumpStyle=none;jumpSize=0;targetPerimeterSpacing=15;dashed=1;strokeWidth=1.5;exitX=1;exitY=0.5;exitDx=0;exitDy=0;entryX=0;entryY=0.5;entryDx=0;entryDy=0;" parent="1" source="nGhAJhlPNn2TMspBPgrk-11" target="J5GDnt6yjxGUtKddlbs5-13" edge="1">
          <mxGeometry width="50" height="50" relative="1" as="geometry">
            <mxPoint x="140" y="810" as="sourcePoint" />
            <mxPoint x="260" y="810" as="targetPoint" />
          </mxGeometry>
        </mxCell>
        <mxCell id="zwFJQ0Gg1JE_ODY-DxE--1" value="Delete Account" style="ellipse;whiteSpace=wrap;html=1;fillColor=#d5e8d4;strokeColor=#82b366;" parent="1" vertex="1">
          <mxGeometry x="172.5" y="600" width="110" height="30" as="geometry" />
        </mxCell>
        <mxCell id="zwFJQ0Gg1JE_ODY-DxE--3" value="View User Account" style="ellipse;whiteSpace=wrap;html=1;fillColor=#f8cecc;strokeColor=#b85450;" parent="1" vertex="1">
          <mxGeometry x="230" y="325" width="130" height="30" as="geometry" />
        </mxCell>
        <mxCell id="AFWIwDUNXXDoYLAIWD7Z-1" value="Exit Account" style="ellipse;whiteSpace=wrap;html=1;fillColor=#d5e8d4;strokeColor=#82b366;" vertex="1" parent="1">
          <mxGeometry x="-47.75000000000001" y="350" width="89.75" height="30" as="geometry" />
        </mxCell>
        <mxCell id="AFWIwDUNXXDoYLAIWD7Z-12" value="Delete User Account" style="ellipse;whiteSpace=wrap;html=1;fillColor=#f8cecc;strokeColor=#b85450;" vertex="1" parent="1">
          <mxGeometry x="380" y="290" width="120" height="30" as="geometry" />
        </mxCell>
        <mxCell id="AFWIwDUNXXDoYLAIWD7Z-13" value="" style="endArrow=blockThin;html=1;strokeColor=#475e75;bendable=1;rounded=0;endFill=1;endSize=4;edgeStyle=entityRelationEdgeStyle;startArrow=none;startFill=0;startSize=4;jumpStyle=none;jumpSize=0;targetPerimeterSpacing=15;dashed=1;strokeWidth=1.5;entryX=1;entryY=0.5;entryDx=0;entryDy=0;exitX=0;exitY=0.5;exitDx=0;exitDy=0;" edge="1" parent="1" source="AFWIwDUNXXDoYLAIWD7Z-12" target="J5GDnt6yjxGUtKddlbs5-60">
          <mxGeometry width="50" height="50" relative="1" as="geometry">
            <mxPoint x="140" y="430" as="sourcePoint" />
            <mxPoint x="260" y="430" as="targetPoint" />
          </mxGeometry>
        </mxCell>
      </root>
    </mxGraphModel>
  </diagram>
</mxfile>
